<svg id="Layer_1" data-name="Layer 1" xmlns="http://www.w3.org/2000/svg" viewBox="0 0 348.4 264.84"><defs><style>.cls-1{fill:none;}.cls-2{fill:#52666f;}.cls-3{fill:#fff;}.cls-4{fill:#ab4d3a;}</style></defs><path class="cls-1" d="M132.59,56.28c-9.77-15.21-31-22.16-48.12-16C74.39,43.94,68.66,52,68.53,65.68c.2,7.24,4.18,15.5,13.23,20.49C84.69,87.79,88.53,88,92,88.32c2,.18,4-.86,6.06-1.11,9.91-1.19,19.71-2.88,28.66-7.54,5.6-2.91,10.5-6.9,9.48-14.13A23.85,23.85,0,0,0,132.59,56.28Z"/><path class="cls-2" d="M0,35.73H15.92q9.3,0,13.8,3.47t4.5,10.72q0,7.23-4.42,11T17,64.78H11.88V80.32H0Zm11.88,8v13H15a8,8,0,0,0,5.4-1.58,5.83,5.83,0,0,0,1.81-4.66,6.66,6.66,0,0,0-1.82-5,7.46,7.46,0,0,0-5.33-1.73Z"/><path class="cls-2" d="M63.55,46.79,63,56.54a6.29,6.29,0,0,0-1.33-.38L60.52,56q-.36,0-1.08,0a7.28,7.28,0,0,0-6.11,2.61c-1.36,1.73-2,4.29-2,7.65V80.32H40v-33H50.07v6.3a13.23,13.23,0,0,1,4.19-5.42,9.93,9.93,0,0,1,5.87-1.75,20.67,20.67,0,0,1,3.2.37Z"/><rect class="cls-2" x="65.13" y="1.26" width="107.19" height="263.59" rx="7.15"/><path class="cls-3" d="M145.11,99.86c-3.75-1.46-7.68-3.62-11.49-3.5-8.3.26-16.57,1.69-24.84,2.8a23.85,23.85,0,0,0-5.3,1.69c-12.6,4.92-25.18,9.88-38.35,15.05l0,9.87h0v-.07A3.6,3.6,0,0,1,67,123.13c10.37-4.4,20.73-8.86,31.27-12.83,3.32-1.26,5.68,2,7.34,4.27,1,1.4,1.3,4.86.32,5.91A166.17,166.17,0,0,1,90.61,135c-8.21,6.79-16.75,13.16-25.42,19.92v8.43a6.25,6.25,0,0,1,2-4.32c10.85-8.73,21.92-17.2,32.75-26a70.38,70.38,0,0,0,9.8-9.65c4.35-5.22,3.62-9.27-1.79-13.23-.79-.58-1.63-1.08-3.08-2,10-2.37,19-6.37,29.17-3.94a38.31,38.31,0,0,0,9.27.77,4.2,4.2,0,0,0,3.1-2.08A3.39,3.39,0,0,0,145.11,99.86Z"/><path class="cls-3" d="M68.53,65.68C68.66,52,74.39,43.94,84.47,40.29c17.07-6.17,38.35.78,48.12,16a23.85,23.85,0,0,1,3.62,9.26c1,7.23-3.88,11.22-9.48,14.13-9,4.66-18.75,6.35-28.66,7.54C96,87.46,94,88.5,92,88.32c-3.48-.32-7.32-.53-10.25-2.15C72.71,81.18,68.73,72.92,68.53,65.68ZM94.47,85.31l-.06.88c3.65-.76,7.36-1.31,10.94-2.31,8.73-2.43,17.73-4.33,24.47-11.15,2.64-2.67,3.67-5.85,1.87-9.14a40.56,40.56,0,0,0-6.76-9.69c-9.29-9.07-20.73-11.84-33.37-10-9.84,1.4-16.53,8.37-17,17.45A20.44,20.44,0,0,0,90,82.4C91.66,82.83,93,84.31,94.47,85.31Z"/><path class="cls-3" d="M130.46,143.76v12.15h-6.58l-.17-3.62a8.26,8.26,0,0,1-3.22,2.93,10.22,10.22,0,0,1-4.61,1,6.87,6.87,0,0,1-7.35-7.37,6.3,6.3,0,0,1,2.92-5.7c2-1.26,4.91-1.89,8.9-1.89h3v-.31a3.38,3.38,0,0,0-1.39-2.9,6.74,6.74,0,0,0-4-1,10.53,10.53,0,0,0-3,.47,22.64,22.64,0,0,0-3.58,1.42l-.12-5.25a19.35,19.35,0,0,1,4-1.19A25.24,25.24,0,0,1,120,132q5.42,0,8,2.85C129.61,136.77,130.46,139.73,130.46,143.76ZM122,145.35a11.3,11.3,0,0,0-4.82.75,2.55,2.55,0,0,0-1.46,2.44,2.71,2.71,0,0,0,.78,2,3,3,0,0,0,2.1.75A4.34,4.34,0,0,0,122,149.8a5.42,5.42,0,0,0,1.32-3.79v-.66Z"/><path class="cls-3" d="M135.87,122h7.59v33.9h-7.59Z"/><path class="cls-3" d="M170.8,144.71v1.94H155.28a4.73,4.73,0,0,0,1.88,3.49,7.2,7.2,0,0,0,4.4,1.23,14.17,14.17,0,0,0,3.49-.47,20,20,0,0,0,3.82-1.45v5.67a20.78,20.78,0,0,1-3.87,1.06c-.72.11-1.41.2-2,.26s-1.35.09-2.13.09q-6.08,0-9.47-3.35t-3.39-9.3a11.75,11.75,0,0,1,3.15-8.62,11.35,11.35,0,0,1,8.47-3.19q5.35,0,8.28,3.29T170.8,144.71ZM164.1,142a7.49,7.49,0,0,0-.46-2.08,5.17,5.17,0,0,0-1-1.58,3.91,3.91,0,0,0-3-1.35,3.74,3.74,0,0,0-3,1.33A6.62,6.62,0,0,0,155.2,142Z"/><path class="cls-4" d="M198.08,142.33v13.6h-7.52V144a7.19,7.19,0,0,0-.92-4.07,3.19,3.19,0,0,0-2.81-1.34,3.68,3.68,0,0,0-3.15,1.68,7.6,7.6,0,0,0-1.2,4.51v11.17H174.9V132.68h6.89v4.17a9.3,9.3,0,0,1,3.35-3.54,8.84,8.84,0,0,1,4.65-1.24,7.48,7.48,0,0,1,6.17,2.61C197.38,136.43,198.08,139,198.08,142.33Z"/><path class="cls-4" d="M213.1,124.78v7.9h5.42v5.74H213.1v8a6.25,6.25,0,0,0,.8,3.65,3.21,3.21,0,0,0,2.73,1l.69-.06.45-.09c.17,0,.41-.1.75-.2l.13,5.17-.82.16-1.56.28-1.13.11c-.37,0-.73,0-1.09,0q-4.45,0-6.51-2.31a7.67,7.67,0,0,1-1.5-3,18.19,18.19,0,0,1-.5-4.54v-8.22h-4.26v-5.74H206v-5.36Z"/><path class="cls-4" d="M222.72,122h7.58v6.46h-7.58Zm0,10.65h7.58v23.25h-7.58Z"/><path class="cls-4" d="M252.23,133.28l-.74,5.6a14.24,14.24,0,0,0-3-1.35,10.08,10.08,0,0,0-3-.5,3.75,3.75,0,0,0-2.15.52,1.66,1.66,0,0,0-.75,1.46c0,.81,1,1.52,3.09,2.12l1.53.46a10.69,10.69,0,0,1,4.93,2.7,6.35,6.35,0,0,1,1.39,4.33,6.94,6.94,0,0,1-2.72,5.78q-2.72,2.13-7.53,2.13a24,24,0,0,1-4-.33,26.12,26.12,0,0,1-3.94-1l.49-5.94a15.63,15.63,0,0,0,3.31,1.31c.58.14,1.14.25,1.7.33a14.3,14.3,0,0,0,1.79.1,5.46,5.46,0,0,0,2.5-.46,1.55,1.55,0,0,0,.84-1.43c0-.91-1.13-1.73-3.4-2.47l-1.32-.42a12.06,12.06,0,0,1-4.83-2.65,5.43,5.43,0,0,1-1.37-3.85,6.63,6.63,0,0,1,2.73-5.65q2.73-2,7.69-2c.57,0,1.12,0,1.63.06s1.08.13,1.69.25A18.65,18.65,0,0,1,252.23,133.28Z"/><path class="cls-3" d="M75.3,165.44h8V183.7q0,4,1.14,5.78A4,4,0,0,0,88,191.29a4.37,4.37,0,0,0,3.86-1.93,10.12,10.12,0,0,0,1.31-5.66V165.44h7.58V183.7q0,6.95-3.17,10.39T88,197.54q-6.3,0-9.51-3.48T75.3,183.7Z"/><path class="cls-3" d="M129.64,183.23v13.6h-7.52v-12a7.18,7.18,0,0,0-.93-4.07,3.18,3.18,0,0,0-2.81-1.34,3.7,3.7,0,0,0-3.15,1.68,7.59,7.59,0,0,0-1.2,4.5v11.18h-7.58V173.58h6.89v4.17a9.3,9.3,0,0,1,3.35-3.54,8.85,8.85,0,0,1,4.65-1.25,7.49,7.49,0,0,1,6.18,2.62Q129.64,178.19,129.64,183.23Z"/><path class="cls-3" d="M135.06,162.93h7.58v6.46h-7.58Zm0,10.65h7.58v23.25h-7.58Z"/><path class="cls-3" d="M145.94,173.58h8.19l4.64,16.06,4.68-16.06h7.61l-8.3,23.25h-8.55Z"/><path class="cls-4" d="M195.31,185.6v1.94H179.79a4.75,4.75,0,0,0,1.88,3.49,7.2,7.2,0,0,0,4.4,1.23,13.71,13.71,0,0,0,3.49-.47,19.33,19.33,0,0,0,3.82-1.45V196a20.12,20.12,0,0,1-3.86,1c-.73.12-1.41.21-2.05.27s-1.35.09-2.13.09q-6.08,0-9.46-3.35t-3.4-9.31a11.73,11.73,0,0,1,3.15-8.61,11.37,11.37,0,0,1,8.47-3.2q5.35,0,8.28,3.3T195.31,185.6Zm-6.7-2.76a7.41,7.41,0,0,0-.46-2.07,5.53,5.53,0,0,0-1-1.59,4,4,0,0,0-3.05-1.34,3.78,3.78,0,0,0-3,1.32,6.62,6.62,0,0,0-1.46,3.68Z"/><path class="cls-4" d="M215.2,173.23l-.4,6.86a3.72,3.72,0,0,0-.89-.27c-.33-.06-.57-.09-.73-.11l-.73,0a4.8,4.8,0,0,0-4.1,1.83,9,9,0,0,0-1.36,5.39v9.92h-7.58V173.58h6.76V178A9.16,9.16,0,0,1,209,174.2a6.38,6.38,0,0,1,3.93-1.24,13.17,13.17,0,0,1,2.15.27Z"/><path class="cls-4" d="M234.29,174.18l-.73,5.6a14.35,14.35,0,0,0-3.05-1.36,10,10,0,0,0-3-.49,3.8,3.8,0,0,0-2.14.51,1.7,1.7,0,0,0-.76,1.47c0,.81,1,1.51,3.09,2.11l1.53.47a10.59,10.59,0,0,1,4.94,2.7,6.38,6.38,0,0,1,1.39,4.33,7,7,0,0,1-2.72,5.78,12,12,0,0,1-7.53,2.13,23.93,23.93,0,0,1-4-.34,25.82,25.82,0,0,1-3.94-1l.48-5.93a16.26,16.26,0,0,0,3.32,1.31,15.17,15.17,0,0,0,1.69.32,14.26,14.26,0,0,0,1.8.11,5.49,5.49,0,0,0,2.5-.46,1.56,1.56,0,0,0,.84-1.43c0-.92-1.14-1.74-3.41-2.47l-1.32-.42a12,12,0,0,1-4.82-2.66,5.34,5.34,0,0,1-1.37-3.84,6.61,6.61,0,0,1,2.72-5.65q2.74-2,7.69-2c.58,0,1.12,0,1.64.07a14.13,14.13,0,0,1,1.68.24A19.27,19.27,0,0,1,234.29,174.18Z"/><path class="cls-4" d="M239.71,162.93h7.58v6.46h-7.58Zm0,10.65h7.58v23.25h-7.58Z"/><path class="cls-4" d="M262.73,165.68v7.9h5.42v5.74h-5.42v8a6.23,6.23,0,0,0,.8,3.65,3.21,3.21,0,0,0,2.73,1.05L267,192l.45-.08c.16,0,.41-.1.75-.2l.13,5.16-.82.17-1.56.27c-.39,0-.77.08-1.13.11s-.73.05-1.09.05c-3,0-5.14-.78-6.51-2.32a7.6,7.6,0,0,1-1.5-3,18.08,18.08,0,0,1-.5-4.54v-8.21h-4.26v-5.74h4.68v-5.36Z"/><path class="cls-4" d="M293,184.65v12.16h-6.57l-.17-3.62a8.3,8.3,0,0,1-3.22,2.92,10.22,10.22,0,0,1-4.61,1A6.86,6.86,0,0,1,271,189.7,6.33,6.33,0,0,1,274,184q2.91-1.87,8.9-1.88h3v-.31a3.38,3.38,0,0,0-1.39-2.9,6.7,6.7,0,0,0-4-1,10.63,10.63,0,0,0-3,.48,22,22,0,0,0-3.57,1.42l-.12-5.25a18.74,18.74,0,0,1,4-1.19,25.2,25.2,0,0,1,4.77-.42q5.43,0,7.95,2.84T293,184.65Zm-8.42,1.59a11.3,11.3,0,0,0-4.82.75,2.56,2.56,0,0,0-1.46,2.45,2.68,2.68,0,0,0,.78,2,3,3,0,0,0,2.1.75,4.33,4.33,0,0,0,3.36-1.45,5.44,5.44,0,0,0,1.32-3.8v-.66Z"/><path class="cls-4" d="M308,165.68v7.9h5.42v5.74H308v8a6.23,6.23,0,0,0,.8,3.65A3.21,3.21,0,0,0,311.5,192l.69-.07.45-.08c.17,0,.41-.1.75-.2l.13,5.16-.82.17-1.56.27c-.39,0-.77.08-1.13.11s-.73.05-1.09.05c-3,0-5.14-.78-6.51-2.32a7.6,7.6,0,0,1-1.5-3,18.08,18.08,0,0,1-.5-4.54v-8.21h-4.26v-5.74h4.68v-5.36Z"/><path class="cls-4" d="M317.59,162.93h7.58v6.46h-7.58Zm0,10.65h7.58v23.25h-7.58Z"/><path class="cls-4" d="M347.1,174.18l-.74,5.6a14.27,14.27,0,0,0-3-1.36,10,10,0,0,0-3-.49,3.84,3.84,0,0,0-2.15.51,1.69,1.69,0,0,0-.75,1.47c0,.81,1,1.51,3.09,2.11l1.53.47a10.6,10.6,0,0,1,4.93,2.7,6.33,6.33,0,0,1,1.39,4.33,7,7,0,0,1-2.72,5.78q-2.71,2.13-7.53,2.13a24,24,0,0,1-4-.34,26.12,26.12,0,0,1-3.94-1l.49-5.93a16.18,16.18,0,0,0,3.31,1.31,15.33,15.33,0,0,0,1.7.32,14.22,14.22,0,0,0,1.79.11,5.46,5.46,0,0,0,2.5-.46,1.56,1.56,0,0,0,.84-1.43c0-.92-1.13-1.74-3.4-2.47l-1.32-.42a12.06,12.06,0,0,1-4.83-2.66,5.39,5.39,0,0,1-1.37-3.84,6.62,6.62,0,0,1,2.73-5.65q2.73-2,7.69-2c.57,0,1.12,0,1.63.07a14.58,14.58,0,0,1,1.69.24A19.5,19.5,0,0,1,347.1,174.18Z"/><path class="cls-3" d="M85.36,202.52H95l11.3,31.39h-8.5l-2.13-6.66H84.15l-2.23,6.66H74Zm4.65,7-3.87,11.78h7.6Z"/><path class="cls-3" d="M108.07,200h7.58v33.91h-7.58Z"/><path class="cls-3" d="M142.09,221.73v12.16h-6.57l-.17-3.62a8.3,8.3,0,0,1-3.22,2.92,10.22,10.22,0,0,1-4.61,1,6.86,6.86,0,0,1-7.35-7.37,6.34,6.34,0,0,1,2.91-5.7c2-1.26,4.92-1.88,8.91-1.88h3v-.31a3.39,3.39,0,0,0-1.4-2.9,6.67,6.67,0,0,0-4-1,10.63,10.63,0,0,0-3,.48,22,22,0,0,0-3.57,1.42l-.13-5.25a18.74,18.74,0,0,1,4-1.19,25.31,25.31,0,0,1,4.78-.42q5.41,0,7.95,2.84T142.09,221.73Zm-8.42,1.59a11.27,11.27,0,0,0-4.82.75,2.56,2.56,0,0,0-1.46,2.45,2.68,2.68,0,0,0,.78,2,3,3,0,0,0,2.1.75,4.33,4.33,0,0,0,3.36-1.45A5.44,5.44,0,0,0,135,224v-.66Z"/><path class="cls-3" d="M155.05,230.64v12.69h-7.58V210.66h6.8v4.43a9.84,9.84,0,0,1,3.34-3.72,8.29,8.29,0,0,1,4.62-1.33,8.9,8.9,0,0,1,7.2,3.32,13.39,13.39,0,0,1,2.74,8.78,13.84,13.84,0,0,1-2.76,8.93,8.71,8.71,0,0,1-7.09,3.43,8.59,8.59,0,0,1-4.11-.95A9,9,0,0,1,155.05,230.64ZM159.78,216a4.11,4.11,0,0,0-3.47,1.66,7.49,7.49,0,0,0-1.26,4.61,7.35,7.35,0,0,0,1.24,4.52,4.24,4.24,0,0,0,6.77-.08,7.71,7.71,0,0,0,1.27-4.68,7.07,7.07,0,0,0-1.25-4.36A3.93,3.93,0,0,0,159.78,216Z"/><path class="cls-4" d="M176.89,210.66h7.59v23.25h-7.59Zm4.16-11.25h6l-6.83,8.18H177Z"/><path class="cls-4" d="M199.91,202.76v7.9h5.42v5.73h-5.42v8a6.23,6.23,0,0,0,.8,3.65,3.21,3.21,0,0,0,2.73,1l.69-.07.45-.08c.17,0,.41-.1.75-.2l.13,5.16-.82.17-1.56.27-1.13.11c-.37,0-.73,0-1.09,0q-4.46,0-6.51-2.31a7.6,7.6,0,0,1-1.5-3,18.08,18.08,0,0,1-.5-4.54v-8.22h-4.26v-5.73h4.68V205.3Z"/><path class="cls-4" d="M207,210.66h8.19l4.64,16.06,4.69-16.06h7.6l-8.3,23.25h-8.54Z"/><path class="cls-4" d="M255.46,221.73v12.16h-6.57l-.17-3.62a8.3,8.3,0,0,1-3.22,2.92,10.22,10.22,0,0,1-4.61,1,6.86,6.86,0,0,1-7.35-7.37,6.33,6.33,0,0,1,2.92-5.7c1.94-1.26,4.91-1.88,8.9-1.88h3v-.31a3.38,3.38,0,0,0-1.39-2.9,6.72,6.72,0,0,0-4-1,10.63,10.63,0,0,0-3,.48,22,22,0,0,0-3.57,1.42l-.12-5.25a18.74,18.74,0,0,1,4-1.19A25.13,25.13,0,0,1,245,210q5.43,0,8,2.84T255.46,221.73ZM247,223.32a11.27,11.27,0,0,0-4.82.75,2.56,2.56,0,0,0-1.46,2.45,2.68,2.68,0,0,0,.78,2,3,3,0,0,0,2.1.75,4.33,4.33,0,0,0,3.36-1.45,5.44,5.44,0,0,0,1.32-3.8v-.66Zm-1.68-23.91h6l-6.83,8.18h-3.23Z"/><path class="cls-4" d="M284,220.31v13.6h-7.52V222a7.16,7.16,0,0,0-.93-4.07,3.16,3.16,0,0,0-2.81-1.34,3.7,3.7,0,0,0-3.15,1.68,7.59,7.59,0,0,0-1.2,4.5v11.18h-7.58V210.66h6.89v4.17a9.3,9.3,0,0,1,3.35-3.54,8.85,8.85,0,0,1,4.65-1.25,7.49,7.49,0,0,1,6.18,2.62Q284,215.27,284,220.31Z"/><path class="cls-4" d="M287.05,210.66h8.17l4.9,16.23,4.64-16.23h7.62l-8.65,22.68a53,53,0,0,1-2.07,4.89,11.39,11.39,0,0,1-1.63,2.43,9.35,9.35,0,0,1-3.27,2.32,11.64,11.64,0,0,1-1.94.55,11.86,11.86,0,0,1-2.18.2l-.87,0a8.5,8.5,0,0,1-1-.09,7.49,7.49,0,0,1-1-.07c-.37,0-.78-.12-1.25-.21l.68-6,1.26.33.77.1h.42a4.41,4.41,0,0,0,2.63-.74,6.3,6.3,0,0,0,1.89-2.41Z"/></svg>